<svg id="Calque_1" data-name="Calque 1" xmlns="http://www.w3.org/2000/svg" width="69" height="29.18" viewBox="0 0 69 29.18">
  <title>ud_logo</title>
  <g>
    <path d="M5496,5423.34V5413h-10v3.54a7.29,7.29,0,0,1-6.86,7.14c-3.53,0-5.14-2-5.14-6.79V5413h-10v5.52c0,7.4,3.33,12.81,11.24,12.81,4.47,0,9.36-2.92,11-6.11,0.52,3.78,3.09,5.76,7.56,5.76a10.76,10.76,0,0,0,5.75-1.76l0.27-3.57a6.68,6.68,0,0,1-2.09.52C5496.61,5426.17,5496,5425.57,5496,5423.34Z" transform="translate(-5464 -5403.67)" fill="#fff"/>
    <path d="M5523,5406.77v9.67c-2-2.84-6.33-4-9.85-4-8,0-13.91,6.71-13.91,15.74a19.09,19.09,0,0,0,.63,4.72l9.2-2.92a14.24,14.24,0,0,1-.11-1.8c0-5.59,2.95-8.69,7.07-8.69a7.86,7.86,0,0,1,4.54,1.47c2.45,1.77,2.43,5,2.43,6v0.22a11,11,0,0,1-.69,3.85H5533v-27.33Z" transform="translate(-5464 -5403.67)" fill="#fff"/>
  </g>
</svg>
