<svg id="Mode_Isolation" data-name="Mode Isolation" xmlns="http://www.w3.org/2000/svg" width="640" height="480" viewBox="0 0 640 480">
  <title>waves_oblique_blue</title>
  <g>
    <path d="M535.44,197.08c-4.83,27.5-41.4,59-81.27,70l-20.52,5.68A105.44,105.44,0,0,0,416,279.57V436.26l64.88-84.13c25.24-32.68,49.79-69.69,54.62-82.24s38.43-39,74.71-58.85l51.13-27.94A259.21,259.21,0,0,0,696.25,160H556.35C545.2,172.25,537.51,185.31,535.44,197.08Z" transform="translate(-416 -160)" fill="#1c4690"/>
    <path d="M416,214.09c3-2,6.34-4,9.5-5.86l36.89-22.31A256.79,256.79,0,0,0,497.74,160H416v54.09Z" transform="translate(-416 -160)" fill="#1c4690"/>
    <path d="M535.44,527.09c4.83-11,30.72-45.67,57.53-77.08l85.54-100.19c26.82-31.41,53.74-67.38,59.84-79.92s39.82-40.62,75-62.38L847,186.64c12.55-7.77,26.06-17,39-26.64H759.82c-11.05,12.47-18.91,25.52-21.47,37.08-6.09,27.5-43.91,58.19-84,68.19l-37.13,9.25c-40.13,10-75.72,51.83-79.08,92.95l-5.31,64.88c-3.36,41.12-39,82.69-79.22,92.39l-19.3,4.68a147.53,147.53,0,0,0-18.26,5.7v79.12c3-2.09,6.34-4.11,9.49-6l36.9-22.32C497.77,564.55,530.62,538.07,535.44,527.09Z" transform="translate(-416 -160)" fill="#1c4690"/>
    <path d="M1035.16,605.44l8.43-6.6c3.89-3.09,7.42-6.26,12.42-9.46V521.59a131.78,131.78,0,0,1-16.58,7.73c-34.66,12.55-76,45.32-91.74,72.82-6.79,11.85-18.89,25.2-33.45,37.86h80.4C1007.94,627.93,1022.12,615.78,1035.16,605.44Z" transform="translate(-416 -160)" fill="#1c4690"/>
    <path d="M1014.45,441.79L1056,371.28V265.9c-6,2.48-11.4,4.59-16.58,6.23-34.66,11-71.79,52.59-82.45,92.45L938.36,434c-10.66,39.86-52,81.46-91.9,92.45l-20.63,5.68c-39.87,11-76.44,42.47-81.27,70-2.11,12-10.09,25.39-21.62,37.86h58.43a257.53,257.53,0,0,1,36.3-26.71L854.61,591c35.38-21.37,77.29-49.12,93.07-61.66S993.53,477.38,1014.45,441.79Z" transform="translate(-416 -160)" fill="#1c4690"/>
    <path d="M610.17,611l51.14-27.95c36.28-19.82,70.94-45,77-56s31.4-47,56.25-79.94l71.15-94.46c24.85-33,59.16-70.24,76.27-82.79s57.08-44.44,88.84-70.87l4.8-3.91c6.18-5.14,13.34-10.7,20.34-16.46V160H972.8C960,172.8,949,185.84,942,197.08c-17.1,27.5-63.66,59.21-103.45,70.45l-16.77,4.74c-39.8,11.24-75.83,54-80.07,95.06L735,432.5c-4.24,41-40.77,81.83-81.18,90.65L617.68,531c-40.41,8.82-77.42,38.54-82.24,66-2.33,13.29-11.67,28.66-24.93,42.93h58.56A230.53,230.53,0,0,1,610.17,611Z" transform="translate(-416 -160)" fill="#1c4690"/>
  </g>
</svg>
