<svg id="Calque_1" data-name="Calque 1" xmlns="http://www.w3.org/2000/svg" width="104.95" height="23.33" viewBox="0 0 104.95 23.33">
  <title>arkadin_logo</title>
  <g>
    <path d="M5642.12,8187.78v-8.23h3.78v21.38h-3.56v-2.25a1.09,1.09,0,0,0-.14.13,5.32,5.32,0,0,1-3.68,2.39,7.44,7.44,0,0,1-6-1.32,7.08,7.08,0,0,1-2.66-4.38,8.82,8.82,0,0,1,.93-6.52,6.87,6.87,0,0,1,6.77-3.49,6,6,0,0,1,4.43,2.16A1.43,1.43,0,0,0,5642.12,8187.78Zm-8.76,5.6c0,0.3,0,.6.09,0.88a4.19,4.19,0,0,0,2.8,3.4,4.32,4.32,0,0,0,4.43-.74,4.44,4.44,0,0,0,1.55-4.07A4.45,4.45,0,0,0,5633.36,8193.38Z" transform="translate(-5566.94 -8178.01)" fill="#fff"/>
    <path d="M5600.59,8193.28v7.65h-3.77v-21.38h3.76V8192l0.07,0,1-1.09,4.62-5a0.44,0.44,0,0,1,.28-0.14h4.58l0.09,0-0.87.94q-2.69,2.85-5.39,5.69a0.26,0.26,0,0,0,0,.43l6.51,7.79,0.16,0.2-0.23,0h-4.52a0.46,0.46,0,0,1-.4-0.23l-5.66-7.26-0.17-.21Z" transform="translate(-5566.94 -8178.01)" fill="#fff"/>
    <path d="M5626.42,8200.94H5623v-2.12a2.41,2.41,0,0,0-.19.2,5.22,5.22,0,0,1-4,2.27,6.8,6.8,0,0,1-3.77-.62,4.1,4.1,0,0,1-2.52-3.86,4.28,4.28,0,0,1,2.49-4.12,8.88,8.88,0,0,1,3.27-.93c1.27-.12,2.54-0.15,3.81-0.22,0.28,0,.56,0,0.83,0a2.54,2.54,0,0,0-1.1-2.67,4.28,4.28,0,0,0-2.82-.57,6,6,0,0,0-3.5,1.51l-2-2a7.16,7.16,0,0,1,2.4-1.61,10.16,10.16,0,0,1,6.63-.44,4.82,4.82,0,0,1,3.69,4.31,12.44,12.44,0,0,1,.12,1.78c0,2.9,0,5.8,0,8.7v0.35Zm-3.63-6.74-0.12,0c-1.18.06-2.36,0.09-3.53,0.2a4.07,4.07,0,0,0-2.09.77,1.62,1.62,0,0,0-.69,1.5,1.85,1.85,0,0,0,1.33,1.62,4.19,4.19,0,0,0,2.25.17,3.16,3.16,0,0,0,2.45-1.55A4.83,4.83,0,0,0,5622.79,8194.2Z" transform="translate(-5566.94 -8178.01)" fill="#fff"/>
    <path d="M5580.79,8200.94h-3.39v-2.1a1.32,1.32,0,0,0-.15.14,5.15,5.15,0,0,1-3.7,2.28,6.79,6.79,0,0,1-4.18-.62,4.07,4.07,0,0,1-2.42-3.67,4.29,4.29,0,0,1,2.38-4.21,9.8,9.8,0,0,1,3.37-1,30.19,30.19,0,0,1,4.4-.21h0.28a2.69,2.69,0,0,0-.67-2.28,3.52,3.52,0,0,0-2.56-1,5.87,5.87,0,0,0-4.15,1.48l-0.07.05-2-2a7.44,7.44,0,0,1,2.89-1.8,10.29,10.29,0,0,1,6.06-.27,4.82,4.82,0,0,1,3.76,4.31,12.67,12.67,0,0,1,.13,1.83c0,2.88,0,5.77,0,8.65v0.37Zm-3.62-6.73-0.16,0c-1.06,0-2.12.05-3.17,0.15a4.85,4.85,0,0,0-2.34.75,1.64,1.64,0,0,0-.79,1.34,1.78,1.78,0,0,0,1.15,1.77,4.25,4.25,0,0,0,2.81.17,3,3,0,0,0,2.3-2A6.31,6.31,0,0,0,5577.17,8194.21Z" transform="translate(-5566.94 -8178.01)" fill="#fff"/>
    <path d="M5661.86,8200.94h-3.75v-15.09h3.57v2.43a1.12,1.12,0,0,0,.11-0.13,4.63,4.63,0,0,1,4.18-2.69,5.84,5.84,0,0,1,3.56.8,4.79,4.79,0,0,1,2.13,3.21,10,10,0,0,1,.21,2c0,3,0,6.08,0,9.12v0.35h-3.77v-0.31c0-2.55,0-5.09,0-7.64a6.74,6.74,0,0,0-.39-2.52,2.4,2.4,0,0,0-2.51-1.61,3.24,3.24,0,0,0-3.3,3.12c0,0.34,0,.69-0.05,1q0,3.79,0,7.59v0.36Z" transform="translate(-5566.94 -8178.01)" fill="#fff"/>
    <path d="M5588.48,8200.94h-3.76c0-.11,0-0.2,0-0.3q0-6.53,0-13.05a2.11,2.11,0,0,1,.57-1.61,1.9,1.9,0,0,1,2-.41,1.86,1.86,0,0,1,1.16,1.72c0,0.3,0,.6,0,0.9l0.08,0,0.14-.25a4.83,4.83,0,0,1,5.47-2.34,0.21,0.21,0,0,1,.22.22c0,1.13,0,2.25,0,3.38a0.22,0.22,0,0,1,0,.07c-0.54-.08-1.07-0.19-1.6-0.22a4.07,4.07,0,0,0-2.56.6,3.77,3.77,0,0,0-1.72,3.29c0,2.55,0,5.1,0,7.64v0.35Z" transform="translate(-5566.94 -8178.01)" fill="#fff"/>
    <path d="M5653.86,8200.94h-3.74c0-.1,0-0.19,0-0.28q0-6.58,0-13.17a1.91,1.91,0,0,1,1.43-2,1.87,1.87,0,0,1,2.34,1.79q0,6.68,0,13.36C5653.88,8200.74,5653.87,8200.83,5653.86,8200.94Z" transform="translate(-5566.94 -8178.01)" fill="#fff"/>
    <ellipse cx="85.08" cy="2.79" rx="2.8" ry="2.79" fill="#fff"/>
  </g>
</svg>
