<svg id="Page_1" data-name="Page 1" xmlns="http://www.w3.org/2000/svg" width="213.54" height="25.99" viewBox="0 0 213.54 25.99">
  <title>bic_educ_logo</title>
  <g>
    <g>
      <path d="M5622.07,8567.72c-2-1.25-6.24-.55-10.51-0.58-12.66-.1-17.89-0.33-30.51,0-4.61.11-8.11,4.76-10.13,9-3.34,7.42-3.68,12.51-.46,14.58,1.26,0.81,3.49.69,5.46,0.69l35.3-.05c4.18,0,8.22-2.86,10.95-9.79C5624.43,8575.87,5625.84,8570,5622.07,8567.72Zm1.47,5.59,0,0.43-0.05.44-0.07.45-0.08.46-0.1.47-0.11.48-0.12.49-0.14.5-0.15.5-0.16.51-0.17.52-0.18.52-0.18.52-0.19.53-0.2.53-0.2.52-0.25.62-0.26.59-0.26.57-0.27.54-0.28.52-0.28.5-0.29.47-0.29.45-0.3.43-0.3.41-0.31.39-0.31.37-0.31.34-0.32.32-0.32.3-0.32.28-0.33.26-0.33.25-0.33.23-0.34.21-0.34.19-0.34.17-0.34.16-0.35.14-0.35.12-0.35.1-0.35.09-0.35.07-0.36.06-0.36,0-0.36,0-0.37-.23-35.29-.18h-0.19l-0.19.24-0.19.12-0.19.06-0.38-.21-0.19-.21h-1.28l-0.17.22-0.17.1-0.17,0h-0.48l-0.15,0-0.15,0-0.14,0-0.14,0-0.13,0-0.13,0-0.12,0-0.11,0-0.11,0-0.1,0-0.09,0-0.08,0-0.24-.17-0.22-.18-0.2-.19-0.18-.2-0.17-.22-0.15-.23-0.13-.24-0.12-.26-0.1-.27-0.09-.29-0.07-.31-0.06-.33,0-.35,0-.37v-0.79l0-.43,0-.44,0.06-.46,0.08-.48,0.1-.5,0.12-.52,0.13-.53,0.15-.55,0.17-.57,0.19-.58,0.21-.6,0.23-.61,0.24-.63,0.26-.65,0.28-.66,0.3-.67,0.18-.38,0.19-.39,0.2-.39,0.21-.39,0.22-.39,0.23-.38,0.23-.38,0.24-.38,0.25-.37,0.26-.36,0.26-.36,0.27-.35,0.28-.34,0.28-.33,0.29-.32,0.3-.31,0.3-.3,0.31-.28,0.31-.27,0.32-.25,0.33-.24,0.33-.22,0.34-.2,0.34-.19,0.35-.17,0.35-.15,0.36-.13,0.36-.11,0.37-.09,0.37-.07,0.38,0,0.4,0,1.15,0,1.12,0,1.08,0,1,0,1,0h4.68l0.88-.47,0.86-.47h0.85l0.84,0.47,0.84,0.24,0.84,0.12,0.84,0.06,0.84,0,0.85,0,0.85,0h9.6l1.12,0,1.17,0h0.4l0.41,0.05,0.4,0h2l0.38,0,0.38,0,0.37,0h3.06l0.3,0,0.29,0,0.28,0,0.26,0,0.25,0,0.24,0,0.22,0.05,0.21,0.06,0.2,0.07,0.18,0.07,0.16,0.08,0.15,0.08,0.28,0.19,0.25,0.2,0.23,0.21,0.2,0.23,0.18,0.24,0.16,0.25,0.14,0.27,0.12,0.28,0.1,0.3,0.08,0.31,0.07,0.33,0,0.35,0,0.37v0.78Z" transform="translate(-5568.23 -8565.46)" fill="#fff" fill-rule="evenodd"/>
      <path d="M5611.35,8571.05a7.27,7.27,0,0,1,4.63,1.55l0.43-1.13H5622l-5.33,6.66h-2.76l0.13-.34c0.66-2.19.49-3.76-1.22-3.76-2,0-4,2.14-5.05,4.85-0.9,2.4-.52,4.4.77,4.83a2.27,2.27,0,0,0,.34.15c1.85,0.67,4.49-.49,5.88-2.64l0.2-.32,1.69,1.81a10.27,10.27,0,0,1-8.08,4.24c-4.56,0-7.65-3.57-6.87-8a10.14,10.14,0,0,1,9.7-8h0Zm-11.54-.19a1.84,1.84,0,1,1-1.92,1.84,1.88,1.88,0,0,1,1.92-1.84h0Zm-9.07,15.65H5597l3.71-11.68h-3.92l-6.08,11.68h0Zm-11.79-15-6.57,15.15h12.42c5.78,0,7.47-6.49,4.27-7.88,5.58-1.13,5.69-7.26,1.7-7.26H5579Zm1.57,8-2.49,4.34,3.11,0c1.35,0,3.15-.5,3.66-2.21,0.36-1.19-.07-2.18-1.07-2.18h-3.21Zm1.67-2.52,1.91-3.22h2.76c1.11,0,1.54,1,1,2a3,3,0,0,1-2.31,1.25c-0.16,0-3.39,0-3.34,0h0Z" transform="translate(-5568.23 -8565.46)" fill="#fff" fill-rule="evenodd"/>
    </g>
    <g>
      <path d="M5776.55,8575.57a4.78,4.78,0,0,0-2.61,1.58,52.23,52.23,0,0,0-7.26,9c-0.45.66-.86,1.35-1.34,2a1.08,1.08,0,0,1-1.77.13,4.18,4.18,0,0,1,.09-2.89c0.73-2.21,1.49-4.41,2.25-6.61,0.3-.88.65-1.74,1-2.78-0.61-.06-1.1-0.13-1.6-0.15s-1.06,0-1.69,0c-0.28.82-.55,1.63-0.83,2.43a19.29,19.29,0,0,1-7.25,9.32,7.09,7.09,0,0,1-2.14,1c-1.73.5-2.67,0.07-3.69-1.49a6.07,6.07,0,0,0-.43-0.51c-1.17.63-2.29,1.32-3.49,1.85a7.69,7.69,0,0,1-2.48.65c-1.53.12-2-.28-2.48-1.73-0.18-.56-0.3-1.15-0.49-1.89-0.36.23-.67,0.4-0.95,0.6-1.13.82-2.2,1.74-3.39,2.45-2.17,1.28-5.09.74-5.93-1.94a3.29,3.29,0,0,0-.47-0.71c-0.78.63-1.46,1.25-2.21,1.77-2.3,1.59-4.32,1.2-5.71-1.22a25.26,25.26,0,0,1-1.39-3.63c-0.26.31-.55,0.6-0.78,0.94a15.6,15.6,0,0,1-4,4.14,15.17,15.17,0,0,1-3.35,1.72c-1.85.64-2.91,0-3.49-1.84-0.12-.36-0.21-0.73-0.36-1.24a20.67,20.67,0,0,1-1.74,1.15,29,29,0,0,1-3.76,1.82c-2.67.93-4.06,0.28-5.39-2.38-0.37.25-.72,0.5-1.09,0.73a18.48,18.48,0,0,1-2.74,1.6,2.77,2.77,0,0,1-3.86-1.76,13.91,13.91,0,0,1-.52-3.13c-0.08-.72,0-1.45,0-2.62l-1.09,1.32c-1.23,1.49-2.39,3-3.71,4.44a9.48,9.48,0,0,1-2.59,1.83c-1.92,1-3.1.45-3.9-1.55-0.1-.24-0.22-0.47-0.33-0.71-1.31.6-2.53,1.28-3.83,1.74-2.79,1-4.53-.07-5.1-3-0.1-.51-0.15-1-0.23-1.62a26.08,26.08,0,0,1-6.6,4.94,10.67,10.67,0,0,1-1.68.63c-1.9.51-3.12-.37-3.27-2.34a8,8,0,0,1,.6-3.72,22.63,22.63,0,0,1,8.82-10.34,4.24,4.24,0,0,1,5.16-.06l1.5-3.63a3.28,3.28,0,0,1,1.94-1.91,1.46,1.46,0,0,1,2,.68l-0.7,1.68a70.59,70.59,0,0,0-3.9,11.11,18.31,18.31,0,0,0-.56,3.93c0,1.93,1,2.51,2.73,1.82a17.54,17.54,0,0,0,1.8-.86c0.41-.22.78-0.49,1.25-0.8a36.85,36.85,0,0,1,.92-3.62c0.88-2.44,1.83-4.86,2.83-7.25a2.35,2.35,0,0,1,2.5-1.62,5.48,5.48,0,0,1,1.36.59c-0.33.8-.57,1.48-0.88,2.12a47.17,47.17,0,0,0-3.46,8.93,9.28,9.28,0,0,0-.29,2.16,2.63,2.63,0,0,0,.51,1,5.34,5.34,0,0,0,2.8-2,48.52,48.52,0,0,0,5.72-8.18,22.24,22.24,0,0,0,1-2.82c0.59-1.52,1.61-1.78,3.28-.77-0.1.57-.21,1.21-0.34,1.84-0.53,2.54-1.09,5.07-1.59,7.62a4.37,4.37,0,0,0,.71,3.9c2.08,0.5,3.15-1.21,4.66-2.24,0.16-.8.3-1.64,0.49-2.48a14.23,14.23,0,0,1,5.09-8.58,9.45,9.45,0,0,1,2.83-1.4,2.1,2.1,0,0,1,2.56.58,1.83,1.83,0,0,1-.2,2.25c-1.06,0-2.14-.29-2.93.07a7.4,7.4,0,0,0-2.52,2.19,12.31,12.31,0,0,0-2.29,6.31,4.39,4.39,0,0,0,.35,1.94,1.52,1.52,0,0,0,1.56,1,4.31,4.31,0,0,0,1.38-.18c2.72-1.05,5.1-2.5,6.48-5.27a20.42,20.42,0,0,1,8.44-8.83,4.6,4.6,0,0,1,2.88-.63,2.09,2.09,0,0,1,2,2.45c-0.05,1.36-.52,1.65-2.18,1.3v-2c-3.65.76-10.26,9.77-10.12,13.7a1.26,1.26,0,0,0,1.79-.1,24.22,24.22,0,0,0,3.14-2.75,23.25,23.25,0,0,0,3.76-6.11c0.27-.6.57-1.19,0.9-1.88h2.16c0.06,0.71.12,1.41,0.16,2.12,0.1,1.59.14,3.19,0.31,4.78,0.13,1.21.45,2.46,1.78,2.89s2.36-.53,3.23-1.49a3.91,3.91,0,0,0,1.06-2.9c0-1.85.15-3.7,0.25-5.74l-2.67.61c-0.83-1.16-.73-1.81.41-2.29,0.85-.36,1.75-0.61,2.72-0.94,0.16-.73.3-1.44,0.47-2.14a14.79,14.79,0,0,1,.69-2.49c0.57-1.28,1.25-1.45,2.77-.91,0.64,1.5-.67,2.94-0.23,4.57l7.19-1.36c0.26,1.32.15,1.72-.81,2.13a15.13,15.13,0,0,1-2.3.66c-1.6.4-3.21,0.77-4.82,1.15a29.06,29.06,0,0,0-.53,9.46c0.28,2.22,1.47,2.84,3.51,1.89a11,11,0,0,0,4.05-3.19,5.66,5.66,0,0,0,.83-2c0.66-2.37,1.17-4.78,1.92-7.13,0.52-1.62,1.31-2,2.88-1.75a1,1,0,0,1,.33.23,2.7,2.7,0,0,1-.23,2.1c-0.65,2.31-1.32,4.61-1.89,6.93a10,10,0,0,0-.2,2.78,7.94,7.94,0,0,0,.5,1.8c2.17,0.41,3.4-1,4.8-1.86,0.51-1.56,1-3.08,1.52-4.57a14.47,14.47,0,0,1,4.08-6.08c1.34-1.15,2.85-2,4.83-1.38l0.32-.7c0.71-1.54,2-1.8,3.07-.49a12.91,12.91,0,0,1,1.19,2.48c2,1.07,4.18-1,6.38-.25,0.19,2-1.21,3.45-1.5,5.67,0.75-.88,1.19-1.43,1.67-1.94,1-1.12,2.07-2.26,3.17-3.33a8.7,8.7,0,0,1,1.77-1.29c1.87-1.07,3.23-.6,3.88,1.44a13.85,13.85,0,0,1,.64,3.51c0.07,1.39-.12,2.79-0.16,4.18s-0.39,2.78.2,4.21l1.53,0.24a1.42,1.42,0,0,1,.07.62,1.58,1.58,0,0,1-.51.58c-1,.69-2,1.51-3.29.87s-1.26-1.86-1.23-3c0.06-2.6.24-5.19,0.35-7.78A2.31,2.31,0,0,0,5776.55,8575.57Zm-106.26-.37a2.42,2.42,0,0,0-2.54.43,37.52,37.52,0,0,0-3.58,3.17,19.33,19.33,0,0,0-4.24,6.94c-0.28.81-.6,1.64,0.19,2.35C5665,8587,5670.58,8580,5670.3,8575.21Zm82.89,10.62c1.46,0.06,1.48.1,2.29-.48,3.45-2.47,5.33-5.94,6.43-9.94l-2.19-2a16,16,0,0,0-7.05,10.06A2.23,2.23,0,0,0,5753.19,8585.83Z" transform="translate(-5568.23 -8565.46)" fill="#fff"/>
      <path d="M5642.81,8578.34c3-.48,5.64-1.79,8.73-1.55l0.22,2-9.2,2.33a14.52,14.52,0,0,0,0,5.28c0.36,1.82,1.11,2.2,3,2a33.25,33.25,0,0,0,9.52-2.77c1.37,1.64,1.27,2.59-.52,3.42a22.84,22.84,0,0,1-11.28,1.95c-1.91-.13-3.37-1.7-3.91-4a16.33,16.33,0,0,1-.28-6.34c0.51-3.14,1.06-6.26,1.62-9.57l-2.08.27a1.56,1.56,0,0,1,.55-2,5.85,5.85,0,0,1,1.19-.72,37,37,0,0,1,12.69-3.24,14.82,14.82,0,0,1,2.09.15v2.17c-3.47.8-7,.73-10.51,2A41.56,41.56,0,0,0,5642.81,8578.34Z" transform="translate(-5568.23 -8565.46)" fill="#fff"/>
      <path d="M5748.23,8567.27a1.1,1.1,0,0,1,0,1.6,13.37,13.37,0,0,1-2,1.57,1.06,1.06,0,0,1-1.46-.19,1.2,1.2,0,0,1,0-1.49A3.32,3.32,0,0,1,5748.23,8567.27Z" transform="translate(-5568.23 -8565.46)" fill="#fff"/>
    </g>
  </g>
</svg>
