<svg id="Mode_Isolation" data-name="Mode Isolation" xmlns="http://www.w3.org/2000/svg" width="148.03" height="25.8" viewBox="0 0 148.03 25.8">
  <title>caravel_logo</title>
  <path d="M6263,11828.9a12.23,12.23,0,0,1-15.86,0A21.6,21.6,0,1,0,6263,11828.9Zm0,20.29a8.12,8.12,0,0,1-7-4,1.09,1.09,0,0,0-1.86,0,8.14,8.14,0,1,1-.21-8.62s1,1.67,2.29,0A8.13,8.13,0,1,1,6263,11849.19Z" transform="translate(-6235 -11827.41)" fill="#fff"/>
  <path d="M6288.88,11836.21a3,3,0,0,0-1.73.47,3.74,3.74,0,0,0-1.14,1.21,5.28,5.28,0,0,0-.62,1.64,8.9,8.9,0,0,0-.18,1.77,8.53,8.53,0,0,0,.18,1.73,5.35,5.35,0,0,0,.59,1.59,3.39,3.39,0,0,0,1.11,1.17,3,3,0,0,0,1.7.46,3.15,3.15,0,0,0,2.38-.86,4.09,4.09,0,0,0,1-2.32h4.16a7.1,7.1,0,0,1-2.43,4.76,7.83,7.83,0,0,1-5.13,1.64,8.58,8.58,0,0,1-3.23-.59,7.15,7.15,0,0,1-2.5-1.65,7.52,7.52,0,0,1-1.61-2.53,8.79,8.79,0,0,1-.58-3.23,10.43,10.43,0,0,1,.53-3.38,7.61,7.61,0,0,1,1.56-2.7,7.15,7.15,0,0,1,2.52-1.77,8.55,8.55,0,0,1,3.4-.64,9.83,9.83,0,0,1,2.68.36,7.17,7.17,0,0,1,2.31,1.11,5.72,5.72,0,0,1,2.38,4.47h-4.22A2.89,2.89,0,0,0,6288.88,11836.21Z" transform="translate(-6235 -11827.41)" fill="#fff"/>
  <path d="M6313.06,11847.58a16.11,16.11,0,0,1-.06-2v-8.16a3.79,3.79,0,0,0-.7-2.29,4.48,4.48,0,0,0-1.67-1.35,7.45,7.45,0,0,0-2.23-.65,17.75,17.75,0,0,0-2.4-.17,13.23,13.23,0,0,0-2.6.26,7.42,7.42,0,0,0-2.32.86,4.87,4.87,0,0,0-1.7,1.5,4.65,4.65,0,0,0-.76,2.41h4.31a2,2,0,0,1,.85-1.72,3.27,3.27,0,0,1,2-.49,7.19,7.19,0,0,1,1.08.1,2.41,2.41,0,0,1,.88.32,1.69,1.69,0,0,1,.61.64,2.3,2.3,0,0,1,.23,1.11,1.17,1.17,0,0,1-.39,1,2.91,2.91,0,0,1-1.15.53,11.51,11.51,0,0,1-1.67.27q-0.94.09-1.91,0.24a18.23,18.23,0,0,0-1.93.41,5.43,5.43,0,0,0-1.7.77,3.93,3.93,0,0,0-1.21,1.38,4.57,4.57,0,0,0-.47,2.2,4.93,4.93,0,0,0,.41,2.09,4,4,0,0,0,1.14,1.46,4.78,4.78,0,0,0,1.7.85,7.7,7.7,0,0,0,2.09.27,9.75,9.75,0,0,0,2.85-.42,5.61,5.61,0,0,0,2.43-1.49,5.92,5.92,0,0,0,.11.74,1.76,1.76,0,0,0,.2.71h4.37A2.41,2.41,0,0,1,6313.06,11847.58ZM6309,11843c0,0.24-.24.57-0.3,1a3.55,3.55,0,0,1-.52,1.2,3,3,0,0,1-1.09,1,3.91,3.91,0,0,1-2,.42,5.57,5.57,0,0,1-1-.09,2.47,2.47,0,0,1-.86-0.32,1.64,1.64,0,0,1-.58-0.62,2,2,0,0,1-.21-1,2.1,2.1,0,0,1,.21-1,1.94,1.94,0,0,1,.56-0.65,2.82,2.82,0,0,1,.82-0.41,7.74,7.74,0,0,1,1-.24q0.51-.09,1-0.15t1-.15a11.12,11.12,0,0,0,1.1-.23,1.12,1.12,0,0,1,.9-0.38v1.61Z" transform="translate(-6235 -11827.41)" fill="#fff"/>
  <path d="M6320.3,11833.39v2.91h0.06a5.26,5.26,0,0,1,.82-1.35,5.37,5.37,0,0,1,1.18-1.06,5.8,5.8,0,0,1,1.42-.68,5.15,5.15,0,0,1,1.58-.24,3.36,3.36,0,0,1,.94.15v4q-0.3-.06-0.73-0.11a7.72,7.72,0,0,0-.82,0,4.59,4.59,0,0,0-2,.39,3.47,3.47,0,0,0-1.32,1.08,4.32,4.32,0,0,0-.71,1.59,8.67,8.67,0,0,0-.21,2v7.07h-4.31v-15.68h4.09Z" transform="translate(-6235 -11827.41)" fill="#fff"/>
  <path d="M6342.16,11847.58a15.65,15.65,0,0,1-.16-2v-8.16a3.77,3.77,0,0,0-.6-2.29,4.31,4.31,0,0,0-1.62-1.35,7.28,7.28,0,0,0-2.2-.65,17.56,17.56,0,0,0-2.39-.17,13.17,13.17,0,0,0-2.59.26,7.4,7.4,0,0,0-2.32.86,4.87,4.87,0,0,0-1.7,1.5,4.65,4.65,0,0,0-.76,2.41h4.31a2,2,0,0,1,.85-1.72,3.27,3.27,0,0,1,2-.49,7.19,7.19,0,0,1,1.08.1,2.41,2.41,0,0,1,.88.32,1.69,1.69,0,0,1,.61.64,2.3,2.3,0,0,1,.23,1.11,1.17,1.17,0,0,1-.39,1,2.91,2.91,0,0,1-1.15.53,11.51,11.51,0,0,1-1.67.27q-0.94.09-1.91,0.24a18.23,18.23,0,0,0-1.93.41,5.43,5.43,0,0,0-1.7.77,3.93,3.93,0,0,0-1.21,1.38,4.57,4.57,0,0,0-.47,2.2,4.93,4.93,0,0,0,.41,2.09,4,4,0,0,0,1.14,1.46,4.78,4.78,0,0,0,1.7.85,7.7,7.7,0,0,0,2.09.27,9.75,9.75,0,0,0,2.85-.42,5.61,5.61,0,0,0,2.43-1.49,5.92,5.92,0,0,0,.11.74,1.76,1.76,0,0,0,.2.71h4.37A2.23,2.23,0,0,1,6342.16,11847.58ZM6338,11843c0,0.24-.14.57-0.19,1a3.4,3.4,0,0,1-.47,1.2,2.93,2.93,0,0,1-1.06,1,3.86,3.86,0,0,1-2,.42,5.5,5.5,0,0,1-1-.09,2.46,2.46,0,0,1-.85-0.32,1.64,1.64,0,0,1-.58-0.62,2,2,0,0,1-.21-1,2.1,2.1,0,0,1,.21-1,1.94,1.94,0,0,1,.56-0.65,2.82,2.82,0,0,1,.82-0.41,7.74,7.74,0,0,1,1-.24q0.51-.09,1-0.15t1-.15a9,9,0,0,0,1-.23,1.42,1.42,0,0,0,.8-0.38v1.61Z" transform="translate(-6235 -11827.41)" fill="#fff"/>
  <polygon points="114.3 21.66 108.93 5.98 113.45 5.98 116.75 16.68 116.82 16.68 120.12 5.98 124.4 5.98 119.09 21.66 114.3 21.66" fill="#fff"/>
  <path d="M6375.75,11838.65a8.22,8.22,0,0,0-1.38-2.9,6.88,6.88,0,0,0-2.44-2,7.46,7.46,0,0,0-3.49-.76,8.12,8.12,0,0,0-3.26.65,7.6,7.6,0,0,0-4.17,4.37,9.14,9.14,0,0,0-.58,3.28,9.55,9.55,0,0,0,.56,3.34,7.57,7.57,0,0,0,1.59,2.61,6.93,6.93,0,0,0,2.52,1.68,9,9,0,0,0,3.34.59,8.26,8.26,0,0,0,4.55-1.32,7.08,7.08,0,0,0,2.79-4.14H6372a1.75,1.75,0,0,1-1.15,1.49,4.09,4.09,0,0,1-5-.34c-0.65-.63-1-1.14-1.06-3.14h11.31A10.79,10.79,0,0,0,6375.75,11838.65Zm-11,1.35a2.62,2.62,0,0,1,.2-1.26,3.7,3.7,0,0,1,.58-1.21,3.41,3.41,0,0,1,1.09-.92,3.73,3.73,0,0,1,1.71-.38,3.14,3.14,0,0,1,2.35,1.06c0.52,0.57.87,0.7,1.08,2.7h-7Z" transform="translate(-6235 -11827.41)" fill="#fff"/>
  <rect x="143.72" width="4.31" height="21.66" fill="#fff"/>
</svg>
