<svg id="Mode_Isolation" data-name="Mode Isolation" xmlns="http://www.w3.org/2000/svg" width="148.03" height="25.8" viewBox="0 0 148.03 25.8">
  <title>caravel_logo</title>
  <path d="M6263,11828.9a12.23,12.23,0,0,1-15.86,0A21.6,21.6,0,1,0,6263,11828.9Zm-8.86,16.29a8.14,8.14,0,1,1-.21-8.62s1,1.67,2.29,0a8.14,8.14,0,1,1-.21,8.62A1.09,1.09,0,0,0,6254.16,11845.19Z" transform="translate(-6235 -11827.41)" fill="#fff"/>
  <path d="M6288.88,11836.21a3,3,0,0,0-1.73.47,3.74,3.74,0,0,0-1.14,1.21,5.28,5.28,0,0,0-.62,1.64,8.9,8.9,0,0,0-.18,1.77,8.53,8.53,0,0,0,.18,1.73,5.35,5.35,0,0,0,.59,1.59,3.39,3.39,0,0,0,1.11,1.17,3,3,0,0,0,1.7.46,3.15,3.15,0,0,0,2.38-.86,4.09,4.09,0,0,0,1-2.32h4.16a7.1,7.1,0,0,1-2.43,4.76,7.83,7.83,0,0,1-5.13,1.64,8.58,8.58,0,0,1-3.23-.59,7.15,7.15,0,0,1-2.5-1.65,7.52,7.52,0,0,1-1.61-2.53,8.79,8.79,0,0,1-.58-3.23,10.43,10.43,0,0,1,.53-3.38,7.61,7.61,0,0,1,1.56-2.7,7.15,7.15,0,0,1,2.52-1.77,8.55,8.55,0,0,1,3.4-.64,9.83,9.83,0,0,1,2.68.36,7.17,7.17,0,0,1,2.31,1.11,5.72,5.72,0,0,1,2.38,4.47h-4.22A2.89,2.89,0,0,0,6288.88,11836.21Z" transform="translate(-6235 -11827.41)" fill="#fff"/>
  <path d="M6298.61,11838.21a5,5,0,0,1,.76-2.52,5.17,5.17,0,0,1,1.7-1.61,7.4,7.4,0,0,1,2.32-.86,13.19,13.19,0,0,1,2.59-.26,17.63,17.63,0,0,1,2.4.17,7.35,7.35,0,0,1,2.21.65,4.37,4.37,0,0,1,1.64,1.35,3.77,3.77,0,0,1,.64,2.29v8.16a16.35,16.35,0,0,0,.12,2,3.66,3.66,0,0,0,.42,1.46H6309a6,6,0,0,1-.2-0.74,6.47,6.47,0,0,1-.11-0.77,5.61,5.61,0,0,1-2.43,1.49,9.75,9.75,0,0,1-2.85.42,7.7,7.7,0,0,1-2.09-.27,4.78,4.78,0,0,1-1.7-.85,4,4,0,0,1-1.14-1.46,4.93,4.93,0,0,1-.41-2.09,4.57,4.57,0,0,1,.47-2.2,3.93,3.93,0,0,1,1.21-1.38,5.43,5.43,0,0,1,1.7-.77,18.23,18.23,0,0,1,1.93-.41q1-.15,1.91-0.24a11.52,11.52,0,0,0,1.67-.27,2.91,2.91,0,0,0,1.15-.53,1.17,1.17,0,0,0,.39-1,2.29,2.29,0,0,0-.23-1.11,1.67,1.67,0,0,0-.61-0.64,2.39,2.39,0,0,0-.88-0.3,7.31,7.31,0,0,0-1.08-.08,3.27,3.27,0,0,0-2,.55,2.43,2.43,0,0,0-.85,1.82h-4.31Zm9.95,3.18a1.94,1.94,0,0,1-.68.38,7,7,0,0,1-.88.23q-0.47.09-1,.15t-1,.15a7.74,7.74,0,0,0-1,.24,2.82,2.82,0,0,0-.82.41,1.94,1.94,0,0,0-.56.65,2.1,2.1,0,0,0-.21,1,2,2,0,0,0,.21,1,1.63,1.63,0,0,0,.58.62,2.44,2.44,0,0,0,.85.32,5.42,5.42,0,0,0,1,.09,3.8,3.8,0,0,0,2-.42,2.84,2.84,0,0,0,1-1,3.26,3.26,0,0,0,.41-1.2,8.19,8.19,0,0,0,.08-1v-1.61Z" transform="translate(-6235 -11827.41)" fill="#fff"/>
  <path d="M6320.3,11833.39v2.91h0.06a5.26,5.26,0,0,1,.82-1.35,5.37,5.37,0,0,1,1.18-1.06,5.8,5.8,0,0,1,1.42-.68,5.15,5.15,0,0,1,1.58-.24,3.36,3.36,0,0,1,.94.15v4q-0.3-.06-0.73-0.11a7.72,7.72,0,0,0-.82,0,4.59,4.59,0,0,0-2,.39,3.47,3.47,0,0,0-1.32,1.08,4.32,4.32,0,0,0-.71,1.59,8.67,8.67,0,0,0-.21,2v7.07h-4.31v-15.68h4.09Z" transform="translate(-6235 -11827.41)" fill="#fff"/>
  <path d="M6327.82,11838.21a5,5,0,0,1,.76-2.52,5.17,5.17,0,0,1,1.7-1.61,7.4,7.4,0,0,1,2.32-.86,13.19,13.19,0,0,1,2.59-.26,17.63,17.63,0,0,1,2.4.17,7.35,7.35,0,0,1,2.21.65,4.37,4.37,0,0,1,1.64,1.35,3.77,3.77,0,0,1,.64,2.29v8.16a16.35,16.35,0,0,0,.12,2,3.66,3.66,0,0,0,.42,1.46h-4.37a6,6,0,0,1-.2-0.74,6.47,6.47,0,0,1-.11-0.77,5.61,5.61,0,0,1-2.43,1.49,9.75,9.75,0,0,1-2.85.42,7.7,7.7,0,0,1-2.09-.27,4.78,4.78,0,0,1-1.7-.85,4,4,0,0,1-1.14-1.46,4.93,4.93,0,0,1-.41-2.09,4.57,4.57,0,0,1,.47-2.2,3.93,3.93,0,0,1,1.21-1.38,5.43,5.43,0,0,1,1.7-.77,18.23,18.23,0,0,1,1.93-.41q1-.15,1.91-0.24a11.52,11.52,0,0,0,1.67-.27,2.91,2.91,0,0,0,1.15-.53,1.17,1.17,0,0,0,.39-1,2.29,2.29,0,0,0-.23-1.11,1.67,1.67,0,0,0-.61-0.64,2.39,2.39,0,0,0-.88-0.3,7.31,7.31,0,0,0-1.08-.08,3.27,3.27,0,0,0-2,.55,2.43,2.43,0,0,0-.85,1.82h-4.31Zm9.95,3.18a1.94,1.94,0,0,1-.68.38,7,7,0,0,1-.88.23q-0.47.09-1,.15t-1,.15a7.74,7.74,0,0,0-1,.24,2.82,2.82,0,0,0-.82.41,1.94,1.94,0,0,0-.56.65,2.1,2.1,0,0,0-.21,1,2,2,0,0,0,.21,1,1.63,1.63,0,0,0,.58.62,2.44,2.44,0,0,0,.85.32,5.42,5.42,0,0,0,1,.09,3.8,3.8,0,0,0,2-.42,2.84,2.84,0,0,0,1-1,3.26,3.26,0,0,0,.41-1.2,8.19,8.19,0,0,0,.08-1v-1.61Z" transform="translate(-6235 -11827.41)" fill="#fff"/>
  <path d="M6349.3,11849.07l-5.37-15.68h4.52l3.31,10.71h0.06l3.31-10.71h4.28l-5.31,15.68h-4.79Z" transform="translate(-6235 -11827.41)" fill="#fff"/>
  <path d="M6365.8,11845.31a4.42,4.42,0,0,0,5,.29,2.71,2.71,0,0,0,1.15-1.38h3.79a7.2,7.2,0,0,1-2.79,4,8.21,8.21,0,0,1-4.55,1.21,9,9,0,0,1-3.34-.59,6.93,6.93,0,0,1-2.52-1.68,7.57,7.57,0,0,1-1.59-2.61,9.55,9.55,0,0,1-.56-3.34,9.13,9.13,0,0,1,.58-3.28,7.58,7.58,0,0,1,4.17-4.37,8.12,8.12,0,0,1,3.26-.64,7.46,7.46,0,0,1,3.49.77,7,7,0,0,1,2.44,2.08,8.55,8.55,0,0,1,1.38,3,11.09,11.09,0,0,1,.3,3.49h-11.31A4.36,4.36,0,0,0,6365.8,11845.31Zm4.87-8.25a3,3,0,0,0-2.35-.85,3.75,3.75,0,0,0-1.71.35,3.28,3.28,0,0,0-1.09.86,3.19,3.19,0,0,0-.58,1.09,5,5,0,0,0-.2,1h7A5,5,0,0,0,6370.67,11837.06Z" transform="translate(-6235 -11827.41)" fill="#fff"/>
  <path d="M6383,11827.41v21.66h-4.31v-21.66H6383Z" transform="translate(-6235 -11827.41)" fill="#fff"/>
</svg>
