<svg id="Calque_1" data-name="Calque 1" xmlns="http://www.w3.org/2000/svg" xmlns:xlink="http://www.w3.org/1999/xlink" width="126.48" height="42.79" viewBox="0 0 126.48 42.79">
  <defs>
    <linearGradient id="linear-gradient" x1="6598.23" y1="9657.26" x2="6598.23" y2="9637.81" gradientUnits="userSpaceOnUse">
      <stop offset="0" stop-color="#fff" stop-opacity="0"/>
      <stop offset="0.16" stop-color="#fff" stop-opacity="0.24"/>
      <stop offset="0.32" stop-color="#fff" stop-opacity="0.47"/>
      <stop offset="0.49" stop-color="#fff" stop-opacity="0.66"/>
      <stop offset="0.64" stop-color="#fff" stop-opacity="0.81"/>
      <stop offset="0.78" stop-color="#fff" stop-opacity="0.91"/>
      <stop offset="0.9" stop-color="#fff" stop-opacity="0.98"/>
      <stop offset="1" stop-color="#fff"/>
    </linearGradient>
  </defs>
  <title>engie_logo</title>
  <g id="_Groupe_" data-name="&lt;Groupe&gt;">
    <g id="_Groupe_2" data-name="&lt;Groupe&gt;">
      <g id="_Groupe_3" data-name="&lt;Groupe&gt;">
        <g id="_Groupe_4" data-name="&lt;Groupe&gt;">
          <path id="_Tracé_" data-name="&lt;Tracé&gt;" d="M6661.47,9657.26c-16.49-12.06-38.74-19.45-63.24-19.45s-46.75,7.39-63.24,19.45h126.48Z" transform="translate(-6534.99 -9637.81)" fill-rule="evenodd" fill="url(#linear-gradient)"/>
          <g id="_Groupe_5" data-name="&lt;Groupe&gt;">
            <g id="_Groupe_6" data-name="&lt;Groupe&gt;">
              <path id="_Tracé_2" data-name="&lt;Tracé&gt;" d="M6589,9660.7c-1.18,0-1.79,1-1.94,2.13s-0.85,5.79-1,6.93a1.84,1.84,0,0,1-.8,1.69,2.23,2.23,0,0,1-2.15-.74l-10.86-9.27a3.07,3.07,0,0,0-2-.75,2.93,2.93,0,0,0-3,3.29v14.47a1.74,1.74,0,0,0,1.74,1.85,1.84,1.84,0,0,0,1.87-1.72s1.12-6.9,1.26-7.67,0.3-1.6,1.16-1.86,1.52,0.21,2.62,1.17,10.24,9.24,10.24,9.24a2.93,2.93,0,0,0,2.2.83c0.9,0,2.53-.37,2.53-3.12v-14.42A1.85,1.85,0,0,0,6589,9660.7Z" transform="translate(-6534.99 -9637.81)" fill="#fff"/>
              <path id="_Tracé_3" data-name="&lt;Tracé&gt;" d="M6654.53,9676.13c-8,1.72-17.11-.12-17.11-5.78,0-4.28,4-6,7.07-6.27,3.27-.26,5.83.43,7.14,1.8,0.82,0.85.59,2-1,2.12s-4.27.18-6.6,0.27c-1.32,0-2,.76-2,1.71,0,0.75.57,1.62,2.08,1.62l10.43,0.05c1.81,0,2.7-1,2.7-3.09,0-3.3-3-8.32-11.73-8.32-7.92,0-13.65,4-13.65,10.41,0,9.16,13.46,12,23.31,8.55,0.94-.32,1.78-1,1.51-2S6655.67,9675.88,6654.53,9676.13Z" transform="translate(-6534.99 -9637.81)" fill="#fff"/>
              <path id="_Tracé_4" data-name="&lt;Tracé&gt;" d="M6561.95,9676.13c-8,1.72-17.11-.12-17.11-5.78,0-4.28,4-6,7.07-6.27,3.27-.26,5.83.43,7.14,1.8,0.82,0.85.59,2-1,2.12s-4.28.18-6.6,0.27c-1.32,0-2,.76-2,1.71,0,0.75.56,1.62,2.08,1.62l10.43,0.05c1.81,0,2.7-1,2.7-3.09,0-3.3-3-8.32-11.73-8.32-7.92,0-13.65,4-13.65,10.41,0,9.16,13.46,12,23.31,8.55,0.93-.32,1.78-1,1.51-2S6563.08,9675.88,6561.95,9676.13Z" transform="translate(-6534.99 -9637.81)" fill="#fff"/>
              <g id="_Groupe_7" data-name="&lt;Groupe&gt;">
                <path id="_Tracé_5" data-name="&lt;Tracé&gt;" d="M6623.76,9667.32c0.17,5,.64,9.14.78,10.59,0.17,1.88,1.14,2.41,2.11,2.41s1.92-.49,2.09-2.39c0.14-1.6.62-6.55,0.85-11.43a0.29,0.29,0,0,0-.37-0.33l-5.19.84A0.31,0.31,0,0,0,6623.76,9667.32Z" transform="translate(-6534.99 -9637.81)" fill="#fff"/>
                <path id="_Tracé_6" data-name="&lt;Tracé&gt;" d="M6626.66,9660.23a2.87,2.87,0,0,0-3.05,3c0,0.21,0,.8.06,1.54a0.31,0.31,0,0,0,.36.3l5.42-.88a0.31,0.31,0,0,0,.26-0.3c0-.26,0-0.52,0-0.64A2.91,2.91,0,0,0,6626.66,9660.23Z" transform="translate(-6534.99 -9637.81)" fill="#fff"/>
              </g>
              <path id="_Tracé_7" data-name="&lt;Tracé&gt;" d="M6618.69,9668.2l-11,.05c-1.73,0-2.16.94-2.16,1.71s0.46,1.54,2.08,1.62l7,0.35c1.95,0.1,2,1.1,1.32,2-1.32,1.72-4.54,2.85-7.87,2.85-4.36,0-9.15-2.48-9.15-6.43,0-3.69,4.1-7.77,16.3-6,1.07,0.15,2.13,0,2.39-1s-0.41-1.74-1.79-2.1a29.36,29.36,0,0,0-7.69-.9c-8.21,0-14.79,3.93-14.79,10.28,0,6.78,6.56,10.09,14.73,10.09,9.13,0,13.58-5,13.58-9.34C6621.71,9669,6620.58,9668.2,6618.69,9668.2Z" transform="translate(-6534.99 -9637.81)" fill="#fff"/>
            </g>
          </g>
        </g>
      </g>
    </g>
  </g>
</svg>
