<svg id="Calque_1" data-name="Calque 1" xmlns="http://www.w3.org/2000/svg" width="147.85" height="22.65" viewBox="0 0 147.85 22.65">
  <title>jcdecaux_logo</title>
  <path d="M6538.44,10381a5.7,5.7,0,0,1-3.15,4.23,8.39,8.39,0,0,1-3.85.74,9.2,9.2,0,0,1-2.64-.38,6.59,6.59,0,0,1-2.27-1.18,5.85,5.85,0,0,1-1.61-2.06,7,7,0,0,1-.61-3v-1.88h4.31v1a8.13,8.13,0,0,0,.12,1.46,3.09,3.09,0,0,0,.42,1.14,2.12,2.12,0,0,0,.83.74,3,3,0,0,0,1.38.27,2.67,2.67,0,0,0,1.46-.33,1.91,1.91,0,0,0,.74-0.86,3.56,3.56,0,0,0,.27-1.15q0-.62,0-1.2v-14.62h4.76v14.83A14.32,14.32,0,0,1,6538.44,10381Z" transform="translate(-6524.31 -10363.35)" fill="#fff"/>
  <path d="M6556.72,10369.64a4.8,4.8,0,0,0-1.06-1.2,5,5,0,0,0-3.12-1.09,5.56,5.56,0,0,0-2.73.62,5.15,5.15,0,0,0-1.82,1.67,7.3,7.3,0,0,0-1,2.38,11.85,11.85,0,0,0-.32,2.76,11,11,0,0,0,.32,2.65,7.15,7.15,0,0,0,1,2.32,5.2,5.2,0,0,0,1.82,1.65,5.55,5.55,0,0,0,2.73.62,4.4,4.4,0,0,0,3.41-1.33,6.17,6.17,0,0,0,1.5-3.52h4.61a11,11,0,0,1-.94,3.67,8.79,8.79,0,0,1-2,2.79,8.51,8.51,0,0,1-2.91,1.76,10.67,10.67,0,0,1-3.67.61,11.1,11.1,0,0,1-4.47-.86,9.58,9.58,0,0,1-3.35-2.38,10.53,10.53,0,0,1-2.09-3.56,13.08,13.08,0,0,1-.73-4.41,13.53,13.53,0,0,1,.73-4.5,10.82,10.82,0,0,1,2.09-3.62,9.57,9.57,0,0,1,3.35-2.43,11.61,11.61,0,0,1,7.85-.36,9.17,9.17,0,0,1,2.85,1.5,8.12,8.12,0,0,1,2.08,2.44,8.73,8.73,0,0,1,1,3.34h-4.61A3.89,3.89,0,0,0,6556.72,10369.64Z" transform="translate(-6524.31 -10363.35)" fill="#fff"/>
  <path d="M6574.64,10363.86a11.16,11.16,0,0,1,3.9.67,8.46,8.46,0,0,1,3.12,2,9.25,9.25,0,0,1,2.06,3.34,13.5,13.5,0,0,1,.74,4.7,15,15,0,0,1-.61,4.37,9.61,9.61,0,0,1-1.83,3.46,8.59,8.59,0,0,1-3.06,2.29,10.36,10.36,0,0,1-4.32.83h-9.34v-21.65h9.34Zm-0.33,17.65a6.11,6.11,0,0,0,2-.33,4.4,4.4,0,0,0,1.73-1.11,5.56,5.56,0,0,0,1.21-2,8.87,8.87,0,0,0,.45-3,12.62,12.62,0,0,0-.32-3,5.9,5.9,0,0,0-1-2.26,4.64,4.64,0,0,0-1.93-1.44,7.69,7.69,0,0,0-3-.5h-3.4v13.65h4.25Z" transform="translate(-6524.31 -10363.35)" fill="#fff"/>
  <path d="M6591.92,10381.75a4.41,4.41,0,0,0,5,.29,2.7,2.7,0,0,0,1.15-1.38h3.79a7.19,7.19,0,0,1-2.79,4,8.21,8.21,0,0,1-4.55,1.21,9,9,0,0,1-3.34-.59,6.93,6.93,0,0,1-2.52-1.68,7.57,7.57,0,0,1-1.59-2.61,9.54,9.54,0,0,1-.56-3.34,9.14,9.14,0,0,1,.58-3.27,7.58,7.58,0,0,1,4.17-4.37,8.12,8.12,0,0,1,3.26-.64,7.46,7.46,0,0,1,3.49.77,7,7,0,0,1,2.44,2.08,8.54,8.54,0,0,1,1.38,3,11.08,11.08,0,0,1,.3,3.49h-11.31A4.35,4.35,0,0,0,6591.92,10381.75Zm4.87-8.25a3,3,0,0,0-2.35-.85,3.75,3.75,0,0,0-1.71.35,3.27,3.27,0,0,0-1.09.86,3.17,3.17,0,0,0-.58,1.09,4.91,4.91,0,0,0-.2,1h7A5,5,0,0,0,6596.79,10373.51Z" transform="translate(-6524.31 -10363.35)" fill="#fff"/>
  <path d="M6612.21,10372.66a3,3,0,0,0-1.73.47,3.73,3.73,0,0,0-1.14,1.21,5.24,5.24,0,0,0-.62,1.64,8.88,8.88,0,0,0-.18,1.77,8.51,8.51,0,0,0,.18,1.73,5.34,5.34,0,0,0,.59,1.59,3.39,3.39,0,0,0,1.11,1.17,3,3,0,0,0,1.7.45,3.16,3.16,0,0,0,2.38-.86,4.09,4.09,0,0,0,1-2.32h4.15a7.1,7.1,0,0,1-2.43,4.76,7.83,7.83,0,0,1-5.12,1.64,8.58,8.58,0,0,1-3.23-.59,7.15,7.15,0,0,1-2.5-1.65,7.52,7.52,0,0,1-1.61-2.53,8.77,8.77,0,0,1-.58-3.23,10.44,10.44,0,0,1,.53-3.38,7.6,7.6,0,0,1,1.56-2.7,7.14,7.14,0,0,1,2.52-1.77,8.55,8.55,0,0,1,3.4-.64,9.83,9.83,0,0,1,2.68.36,7.17,7.17,0,0,1,2.3,1.11,5.72,5.72,0,0,1,2.38,4.47h-4.21A2.89,2.89,0,0,0,6612.21,10372.66Z" transform="translate(-6524.31 -10363.35)" fill="#fff"/>
  <path d="M6621.94,10374.66a5,5,0,0,1,.76-2.52,5.16,5.16,0,0,1,1.7-1.61,7.4,7.4,0,0,1,2.32-.86,13.21,13.21,0,0,1,2.59-.26,17.61,17.61,0,0,1,2.4.17,7.34,7.34,0,0,1,2.21.65,4.36,4.36,0,0,1,1.64,1.35,3.77,3.77,0,0,1,.64,2.29v8.16a16.34,16.34,0,0,0,.12,2,3.66,3.66,0,0,0,.42,1.46h-4.37a6.07,6.07,0,0,1-.2-0.74,6.36,6.36,0,0,1-.11-0.77,5.61,5.61,0,0,1-2.43,1.49,9.74,9.74,0,0,1-2.85.42,7.7,7.7,0,0,1-2.09-.27,4.79,4.79,0,0,1-1.7-.85,4,4,0,0,1-1.14-1.46,4.92,4.92,0,0,1-.41-2.09,4.57,4.57,0,0,1,.47-2.2,3.93,3.93,0,0,1,1.21-1.38,5.45,5.45,0,0,1,1.7-.77,18.25,18.25,0,0,1,1.93-.41q1-.15,1.91-0.24a11.48,11.48,0,0,0,1.67-.27,2.9,2.9,0,0,0,1.15-.53,1.16,1.16,0,0,0,.39-1,2.28,2.28,0,0,0-.23-1.11,1.67,1.67,0,0,0-.61-0.64,2.39,2.39,0,0,0-.88-0.3,7.25,7.25,0,0,0-1.08-.08,3.27,3.27,0,0,0-2,.55,2.44,2.44,0,0,0-.85,1.82h-4.31Zm9.95,3.18a1.93,1.93,0,0,1-.68.38,7,7,0,0,1-.88.23q-0.47.09-1,.15t-1,.15a7.81,7.81,0,0,0-1,.24,2.83,2.83,0,0,0-.82.41,2,2,0,0,0-.56.65,2.1,2.1,0,0,0-.21,1,2,2,0,0,0,.21,1,1.63,1.63,0,0,0,.58.62,2.43,2.43,0,0,0,.85.32,5.4,5.4,0,0,0,1,.09,3.8,3.8,0,0,0,2-.42,2.84,2.84,0,0,0,1-1,3.25,3.25,0,0,0,.41-1.2,8.3,8.3,0,0,0,.08-1v-1.61Z" transform="translate(-6524.31 -10363.35)" fill="#fff"/>
  <path d="M6650.14,10385.51v-2.18h-0.09a4.84,4.84,0,0,1-2.12,2,6.27,6.27,0,0,1-2.67.61,7.53,7.53,0,0,1-2.84-.45,4.09,4.09,0,0,1-1.74-1.29,5,5,0,0,1-.89-2,12.62,12.62,0,0,1-.26-2.65v-9.64h4.31v8.85a5.49,5.49,0,0,0,.61,2.9,2.35,2.35,0,0,0,2.15,1,3,3,0,0,0,2.55-1,5.82,5.82,0,0,0,.79-3.44v-8.22h4.31v15.68h-4.09Z" transform="translate(-6524.31 -10363.35)" fill="#fff"/>
  <path d="M6656.36,10369.84h4.91l2.76,4.09,2.73-4.09h4.76l-5.15,7.34,5.79,8.34h-4.91l-3.27-4.94-3.27,4.94h-4.82l5.64-8.25Z" transform="translate(-6524.31 -10363.35)" fill="#fff"/>
</svg>
