<svg id="Calque_1" data-name="Calque 1" xmlns="http://www.w3.org/2000/svg" width="136.45" height="49.77" viewBox="0 0 136.45 49.77">
  <title>juxta_logo</title>
  <g>
    <path d="M6523.26,9332.09a6.94,6.94,0,0,0,4.41-1.5c1.1-1.09,1.56-2.67,1.56-7.36v-16.47h4v17.84c0,3.8-.69,6.27-2.66,8.05a11.14,11.14,0,0,1-6.89,2.23Zm7.9-28.93a2.36,2.36,0,0,1-2.53-2.3,2.39,2.39,0,0,1,2.62-2.27,2.3,2.3,0,1,1,0,4.57h0Z" transform="translate(-6523.26 -9285.11)" fill="#fff"/>
    <path d="M6558.51,9321c0,2,0,3.8.18,5.34h-3.58l-0.23-3.2h-0.09a8.54,8.54,0,0,1-7.35,3.64c-3.49,0-7.67-1.74-7.67-8.58v-11.45h4v10.8c0,3.72,1.33,6.27,5,6.27a5.81,5.81,0,0,0,5.33-3.28,4.36,4.36,0,0,0,.37-1.82v-12h4V9321h0Z" transform="translate(-6523.26 -9285.11)" fill="#fff"/>
    <path d="M6567.1,9306.76l3.17,4.17c0.83,1.13,1.52,2.11,2.25,3.2h0.14c0.74-1.13,1.47-2.14,2.25-3.2l3.08-4.17h4.41l-7.58,9.47,7.77,10.12H6578l-3.26-4.41c-0.87-1.13-1.61-2.22-2.39-3.4h-0.09c-0.74,1.17-1.52,2.22-2.34,3.4l-3.22,4.41h-4.46l7.9-10-7.54-9.59h4.5Z" transform="translate(-6523.26 -9285.11)" fill="#fff"/>
    <path d="M6592,9302.07v4.69h5.79v2.71H6592V9320c0,2.43.78,3.8,3,3.8a8.42,8.42,0,0,0,2.34-.24l0.18,2.71a12.38,12.38,0,0,1-3.58.49,6.2,6.2,0,0,1-4.37-1.5c-1.1-1.09-1.56-2.83-1.56-5.14v-10.68h-3.45v-2.71H6588v-3.6Z" transform="translate(-6523.26 -9285.11)" fill="#fff"/>
    <path d="M6618,9321.65a28.84,28.84,0,0,0,.32,4.69h-3.63l-0.37-2.47h-0.14a8.62,8.62,0,0,1-6.8,2.91c-4.5,0-6.8-2.79-6.8-5.62,0-4.73,4.78-7.32,13.37-7.28v-0.4c0-1.62-.51-4.57-5.05-4.53a11.81,11.81,0,0,0-5.84,1.46l-0.92-2.39a15.94,15.94,0,0,1,7.35-1.7c6.85,0,8.5,4.09,8.5,8v7.32Zm-4-5.3c-4.41-.08-9.42.61-9.42,4.41,0,2.35,1.75,3.4,3.77,3.4a5.62,5.62,0,0,0,5.47-3.28,3.27,3.27,0,0,0,.18-1.13v-3.4Z" transform="translate(-6523.26 -9285.11)" fill="#fff"/>
    <path d="M6637.21,9305a12.57,12.57,0,0,1-7.34.33c-2.73-.61-5.51-1.84-6.94-4.49s-1.66-5.92-1.78-8.62-0.07-4.82.48-5.93,2.25-1.41,5.14-.94a19.43,19.43,0,0,1,9.78,4.6,11.78,11.78,0,0,1,4,9.23c-0.14,2.9-1.45,5-3.32,5.82" transform="translate(-6523.26 -9285.11)" fill="#fff"/>
    <path d="M6629.37,9303.28a9.85,9.85,0,0,1,7.39-3.05c3.2,0,7.05,1.58,7.9,5.6,1.11,3.89-.87,8.51-2.7,11.16s-3.74,3.64-5,3.42-2.89-1-5.42-1.48-5.67-1-7-2.58c-1.52-1.49-.44-4.17.73-6.63a34.82,34.82,0,0,1,4-6.44" transform="translate(-6523.26 -9285.11)" fill="#fff"/>
    <path d="M6659.59,9301.42c0.44,0.94-.33,2.15-3.06,3.72s-7.17,3.28-11.58,2.77a9,9,0,0,1-8.16-6,7.59,7.59,0,0,1,1.28-7.39,20.28,20.28,0,0,1,6.55-4.6c2.58-1.12,5.33-1.78,7.37-.06,2.11,1.55,3.38,4.69,4.66,6.89s2.45,3.71,2.93,4.68" transform="translate(-6523.26 -9285.11)" fill="#fff"/>
  </g>
</svg>
