<svg id="Calque_1" data-name="Calque 1" xmlns="http://www.w3.org/2000/svg" width="103.04" height="20.39" viewBox="0 0 103.04 20.39">
  <title>spie_logo</title>
  <g>
    <path d="M6194.4,10378.69v-2.22l0.51,0h8.24a6,6,0,0,0,2.91-.71,4.29,4.29,0,0,0,2.47-4.2,4.45,4.45,0,0,0-3-4.14,5.39,5.39,0,0,0-2-.41,28.72,28.72,0,0,0-3.15.06,7.58,7.58,0,0,0-6.66,5.8,9,9,0,0,0-.26,2.15q0,4.82,0,9.65c0,0.17,0,.34,0,0.53h-7.29c0-.13,0-0.26,0-0.38,0-3.3,0-6.6,0-9.9a8.33,8.33,0,0,1,1.85-5.12,12.08,12.08,0,0,1,5.44-3.9,14.51,14.51,0,0,1,5.13-1c2.18,0,4.35,0,6.53,0a17.18,17.18,0,0,1,6.32,1.28,9.26,9.26,0,0,1,2.3,1.38,5.65,5.65,0,0,1,0,8.56,9.59,9.59,0,0,1-3.39,1.75,17.33,17.33,0,0,1-4.83.76c-3.6,0-7.2,0-10.8.06Z" transform="translate(-6155.46 -10364.83)" fill="#fff"/>
    <path d="M6155.46,10383.95l1-1.78c0.54,0.15,1,.31,1.55.44a24.71,24.71,0,0,0,4.68.68c1.48,0.08,3,.14,4.43.14a11.42,11.42,0,0,0,3.74-.57,9.23,9.23,0,0,0,1.55-.7,2.88,2.88,0,0,0,.79-0.7,1.49,1.49,0,0,0,0-1.93,2.55,2.55,0,0,0-1-.82,9.29,9.29,0,0,0-1.48-.54c-2.45-.62-4.91-1.2-7.37-1.81a21.22,21.22,0,0,1-4.63-1.58,7.1,7.1,0,0,1-1.65-1.12,3.58,3.58,0,0,1-.28-5.16,7.17,7.17,0,0,1,2.4-1.75,17,17,0,0,1,4.56-1.37,36,36,0,0,1,8.12-.4,28,28,0,0,1,6.43,1c0.29,0.08.57,0.18,0.85,0.28a1.27,1.27,0,0,1,.18.11l-1,1.3a0.32,0.32,0,0,1-.39,0c-0.95-.2-1.89-0.43-2.84-0.58a31.41,31.41,0,0,0-7.7-.31,7.87,7.87,0,0,0-2.52.59,4.7,4.7,0,0,0-1,.58,2.29,2.29,0,0,0-.56.68,1.34,1.34,0,0,0,.31,1.77,3.86,3.86,0,0,0,1.49.81c0.91,0.28,1.83.53,2.75,0.77,2.23,0.58,4.46,1.12,6.69,1.71a18.05,18.05,0,0,1,3.67,1.38,7.53,7.53,0,0,1,1.79,1.23,3.44,3.44,0,0,1,1.17,2.85,3.31,3.31,0,0,1-.7,1.76,6.18,6.18,0,0,1-1.72,1.51,14.56,14.56,0,0,1-3.76,1.58,29.91,29.91,0,0,1-5.19,1,44.88,44.88,0,0,1-7.16.15,32.49,32.49,0,0,1-6.85-1.1Z" transform="translate(-6155.46 -10364.83)" fill="#fff"/>
    <path d="M6258.5,10382.84v2.26l-0.39,0c-3.81,0-7.62,0-11.44,0a14.15,14.15,0,0,1-8.77-3,9.64,9.64,0,0,1-3.05-3.88,8.17,8.17,0,0,1,.46-7.5,10.59,10.59,0,0,1,3.82-3.82,14.16,14.16,0,0,1,6-2,19,19,0,0,1,2-.1h11.45v2.23h-9.17a7.08,7.08,0,0,0-6.64,4.14,7.86,7.86,0,0,0-.76,2.39,1.79,1.79,0,0,0,0,.25c1.06,0,2.11,0,3.15,0h9.45v2.22c-0.46,0-.92,0-1.39,0h-11.23c0,0.2,0,.37.08,0.52a7.83,7.83,0,0,0,3,4.86,6.65,6.65,0,0,0,4.09,1.36h9.41Z" transform="translate(-6155.46 -10364.83)" fill="#fff"/>
    <path d="M6221.16,10364.94h7.26v20.21c-0.31.08-6.78,0.1-7.26,0v-20.23Z" transform="translate(-6155.46 -10364.83)" fill="#fff"/>
  </g>
</svg>
