<svg id="Calque_1" data-name="Calque 1" xmlns="http://www.w3.org/2000/svg" width="145.28" height="17.64" viewBox="0 0 145.28 17.64">
  <title>thales_logo</title>
  <g>
    <path d="M5664,7842v3a42.07,42.07,0,0,1-16.79,0v-16h4v13H5664Z" transform="translate(-5567 -7828.18)" fill="#fff" fill-rule="evenodd"/>
    <path d="M5567,7829a60.27,60.27,0,0,1,19.73,0v2.84h-7.9V7845h-4v-13.14H5567V7829h0Z" transform="translate(-5567 -7828.18)" fill="#fff" fill-rule="evenodd"/>
    <path d="M5687.9,7842v3a46.66,46.66,0,0,1-17.7,0v-16a47.36,47.36,0,0,1,17.47,0v2.84h-13.45v3.25h7.86v3.21h-7.86v3.7h13.68Z" transform="translate(-5567 -7828.18)" fill="#fff" fill-rule="evenodd"/>
    <path d="M5633.09,7840a2.73,2.73,0,0,1-.81,2,2.91,2.91,0,0,1-2,.81,2.8,2.8,0,0,1-2-.81,2.83,2.83,0,0,1,0-4,2.6,2.6,0,0,1,2-.86,2.77,2.77,0,0,1,2,.86,2.73,2.73,0,0,1,.81,2h0Z" transform="translate(-5567 -7828.18)" fill="#fff" fill-rule="evenodd"/>
    <polygon points="42.75 6.91 31.33 6.91 31.33 0.45 27.67 0.9 27.67 16.98 31.33 17.43 31.33 10.16 42.75 10.16 42.75 17.43 46.41 16.98 46.41 0.9 42.75 0.41 42.75 6.91 42.75 6.91" fill="#fff" fill-rule="evenodd"/>
    <polygon points="63.29 3.88 70.61 17.29 74.58 16.79 72.73 13.59 72.68 13.54 65.28 0.81 61.62 0.81 52.41 16.79 55.98 17.25 62.21 5.82 62.26 5.78 63.29 3.88 63.29 3.88" fill="#fff" fill-rule="evenodd"/>
    <path d="M5697.43,7835.22v-3.39h14.63V7829a44.16,44.16,0,0,0-8.62-.72,27.81,27.81,0,0,0-7.4.86,2.72,2.72,0,0,0-1.67,1.13,5.19,5.19,0,0,0-.5,2.53v1.76a3.84,3.84,0,0,0,.95,3,5.4,5.4,0,0,0,3.34.77h10.56V7842h-14.85v3l9.57,0.77v0a25.3,25.3,0,0,0,6.77-.9,2.31,2.31,0,0,0,1.63-1.13,5.06,5.06,0,0,0,.45-2.48V7839a4,4,0,0,0-.9-3,5.31,5.31,0,0,0-3.34-.77h-10.61Z" transform="translate(-5567 -7828.18)" fill="#fff" fill-rule="evenodd"/>
  </g>
</svg>
