<svg id="Calque_1" data-name="Calque 1" xmlns="http://www.w3.org/2000/svg" width="78" height="33.93" viewBox="0 0 78 33.93">
  <title>ud_logo</title>
  <g>
    <path d="M6118,13002v-12h-12v4.19a8.47,8.47,0,0,1-8,8.2c-4,0-6-2.27-6-7.8V12990h-11v6.46c0,8.5,3.47,14.72,12.56,14.72,5.14,0,10.58-3.36,12.45-7,0.59,4.35,3.54,6.62,8.68,6.62,2.47,0,5.31-.89,6.31-1.78v-4.15c-1,.2-0.61.4-1.4,0.4C6118.31,13005.25,6118,13004.56,6118,13002Z" transform="translate(-6081 -12979)" fill="#1acc58"/>
    <path d="M6132.08,13009.57a16.3,16.3,0,0,1-.13-2.06c0-6.42,3.19-10,7.93-10,3.75,0,7.13,2.27,8.13,4.84v7.63h11v-31h-11v15.07c-2-3.26-7.24-4.64-11.29-4.64-9.19,0-16,7.7-16,18.08a21.93,21.93,0,0,0,.73,5.42Z" transform="translate(-6081 -12979)" fill="#1acc58"/>
  </g>
</svg>
