<svg id="Calque_1" data-name="Calque 1" xmlns="http://www.w3.org/2000/svg" width="96.42" height="21.15" viewBox="0 0 96.42 21.15">
  <title>xerox_logo</title>
  <g>
    <path d="M3792.72,8935.22a4.08,4.08,0,0,0,.32,1.43,5,5,0,0,0,3.84,3.17,9.25,9.25,0,0,0,4.77-.31,15.26,15.26,0,0,0,2.2-.91,1.92,1.92,0,0,1,.35-0.15,0.59,0.59,0,0,1,.79.4c0.22,0.6.43,1.21,0.65,1.82,0.06,0.17.13,0.34,0.18,0.52a0.67,0.67,0,0,1-.33.91,10,10,0,0,1-2.32,1.05,16.47,16.47,0,0,1-4.07.86,12.52,12.52,0,0,1-6.93-1.29,8.7,8.7,0,0,1-4.38-5.35,11.66,11.66,0,0,1,.16-7.72,9.82,9.82,0,0,1,7.89-6.55,10.36,10.36,0,0,1,5.79.6,8.12,8.12,0,0,1,4.73,5.1,12.7,12.7,0,0,1,.64,3.9c0,0.51,0,1,0,1.52a2.13,2.13,0,0,1,0,.38,0.68,0.68,0,0,1-.74.62h-13.5Zm0-3.7h9c0.25,0,.29,0,0.27-0.28a8,8,0,0,0-.13-1.09,3.79,3.79,0,0,0-1.45-2.4,4.59,4.59,0,0,0-5-.33,5.14,5.14,0,0,0-2.7,3.88A1.54,1.54,0,0,0,3792.73,8931.52Z" transform="translate(-3767 -8922.92)" fill="#fff"/>
    <path d="M3822.59,8933.5a10.8,10.8,0,0,1,1.32-5.4,9.58,9.58,0,0,1,6.6-4.9,11,11,0,0,1,6,.29,9.63,9.63,0,0,1,6.24,6.14,11.53,11.53,0,0,1,.58,5.07,10.5,10.5,0,0,1-1.34,4.35,9.64,9.64,0,0,1-6.86,4.82,11.26,11.26,0,0,1-6.05-.47,9.36,9.36,0,0,1-6-6.55A11.22,11.22,0,0,1,3822.59,8933.5Zm5.41,0c0,0.25,0,.51,0,0.76a8.3,8.3,0,0,0,.9,3.51,4.27,4.27,0,0,0,3.16,2.32,5.34,5.34,0,0,0,1.75,0,4.16,4.16,0,0,0,2.37-1.17,5.66,5.66,0,0,0,1.4-2.54,11.29,11.29,0,0,0,.32-3.9,8.64,8.64,0,0,0-.6-2.68,4.94,4.94,0,0,0-1.38-2,4.45,4.45,0,0,0-3-1,4.58,4.58,0,0,0-2.34.62,4.73,4.73,0,0,0-2,2.46A9,9,0,0,0,3828,8933.48Z" transform="translate(-3767 -8922.92)" fill="#fff"/>
    <path d="M3779.92,8933.15c0.34,0.36.67,0.69,1,1a31.37,31.37,0,0,1,5.12,7.7c0.15,0.32.28,0.66,0.41,1a1.34,1.34,0,0,1,.09.3,0.46,0.46,0,0,1-.37.57,1.37,1.37,0,0,1-.37,0c-1.35,0-2.69,0-4,0a1,1,0,0,1-1-.66c-0.29-.66-0.58-1.33-0.9-2a19.16,19.16,0,0,0-2.79-4.18c-0.18-.2-0.38-0.4-0.59-0.62-0.1.09-.17,0.15-0.24,0.22a22.34,22.34,0,0,0-3,4.21c-0.39.7-.74,1.43-1.1,2.15l-0.17.34a0.9,0.9,0,0,1-.84.51h-1.66c-0.63,0-1.27,0-1.9,0a0.51,0.51,0,0,1-.54-0.75c0.11-.33.24-0.65,0.37-1a24.76,24.76,0,0,1,5.78-8.37l0.16-.17-0.25-.33a41.18,41.18,0,0,1-3.37-4.8,22,22,0,0,1-1.87-3.88,5.4,5.4,0,0,1-.19-0.63,0.49,0.49,0,0,1,.52-0.66h4.31a0.85,0.85,0,0,1,.81.54c0.22,0.46.42,0.92,0.64,1.38a26.72,26.72,0,0,0,2.66,4.43c0.09,0.12.19,0.23,0.28,0.35a0.66,0.66,0,0,0,.12.08c0.16-.18.32-0.35,0.47-0.53a32,32,0,0,0,3.34-5.06c0.12-.22.24-0.45,0.37-0.67a1,1,0,0,1,.91-0.52h3.24a1.13,1.13,0,0,1,.24,0,0.4,0.4,0,0,1,.36.47,1.73,1.73,0,0,1-.1.43,19,19,0,0,1-1.85,3.77,33,33,0,0,1-3.67,4.75Z" transform="translate(-3767 -8922.92)" fill="#fff"/>
    <path d="M3853.9,8930c0.15-.16.29-0.3,0.41-0.44a28.07,28.07,0,0,0,2.68-3.85c0.33-.55.63-1.12,0.95-1.68l0.17-.3a1,1,0,0,1,.9-0.52h3.24a1.24,1.24,0,0,1,.24,0,0.41,0.41,0,0,1,.36.46,1.93,1.93,0,0,1-.11.47,20.07,20.07,0,0,1-2.38,4.58,35.78,35.78,0,0,1-3.26,4.06l-0.19.2a1.06,1.06,0,0,0-.07.12l0.26,0.29a31.58,31.58,0,0,1,5.43,7.66c0.27,0.54.51,1.11,0.75,1.66a1.56,1.56,0,0,1,.12.43,0.44,0.44,0,0,1-.34.53,1.52,1.52,0,0,1-.44.06c-1.32,0-2.65,0-4,0a1,1,0,0,1-1-.64c-0.22-.52-0.45-1-0.69-1.54a19.33,19.33,0,0,0-3.25-4.89l-0.37-.36c-0.14.14-.26,0.25-0.37,0.38a22.4,22.4,0,0,0-2.78,3.94c-0.41.74-.78,1.51-1.17,2.27l-0.14.28a0.94,0.94,0,0,1-.91.56h-3.59a0.45,0.45,0,0,1-.5-0.57,1.69,1.69,0,0,1,.11-0.4,25,25,0,0,1,5.41-8.46l0.82-.83-0.22-.29a39.72,39.72,0,0,1-3.75-5.45,19.65,19.65,0,0,1-1.62-3.58,1.94,1.94,0,0,1-.1-0.4,0.47,0.47,0,0,1,.47-0.56h0.31c1.27,0,2.53,0,3.8,0a1.15,1.15,0,0,1,1.22.8,27.8,27.8,0,0,0,2.59,4.75c0.22,0.32.46,0.63,0.69,0.95C3853.71,8929.83,3853.8,8929.92,3853.9,8930Z" transform="translate(-3767 -8922.92)" fill="#fff"/>
    <path d="M3815.55,8936.73q0,2.92,0,5.83a2.87,2.87,0,0,1,0,.55,0.78,0.78,0,0,1-.7.66,2.72,2.72,0,0,1-.41,0h-2.86a1,1,0,0,1-1.15-1.09c0-.1,0-0.21,0-0.31q0-4.92,0-9.84a27.17,27.17,0,0,1,.2-3.68,6.16,6.16,0,0,1,3.89-5.06,10.1,10.1,0,0,1,3.14-.75,17.19,17.19,0,0,1,4.13.05,6.66,6.66,0,0,1,.71.14,0.56,0.56,0,0,1,.48.59,2.32,2.32,0,0,1,0,.51c-0.13.68-.27,1.35-0.41,2v0a0.64,0.64,0,0,1-.89.64,11.49,11.49,0,0,0-2.2-.12,7,7,0,0,0-1.26.19,3,3,0,0,0-2.45,2.81c-0.07.71-.09,1.42-0.1,2.14C3815.54,8933.62,3815.55,8935.18,3815.55,8936.73Z" transform="translate(-3767 -8922.92)" fill="#fff"/>
  </g>
</svg>
